<?xml version="1.0" encoding="utf-8"?>
<!-- Generator: Adobe Illustrator 15.0.0, SVG Export Plug-In . SVG Version: 6.00 Build 0)  -->
<!DOCTYPE svg PUBLIC "-//W3C//DTD SVG 1.1//EN" "http://www.w3.org/Graphics/SVG/1.1/DTD/svg11.dtd">
<svg version="1.1" xmlns="http://www.w3.org/2000/svg" xmlns:xlink="http://www.w3.org/1999/xlink" x="0px" y="0px" width="200px"
	 height="200px" viewBox="0 0 200 200" enable-background="new 0 0 200 200" xml:space="preserve">
<g id="Layer_1">
	<radialGradient id="SVGID_1_" cx="113" cy="51.6675" r="77.0005" gradientUnits="userSpaceOnUse">
		<stop  offset="0.1314" style="stop-color:#818183"/>
		<stop  offset="0.3188" style="stop-color:#7D7D7F"/>
		<stop  offset="0.5422" style="stop-color:#737274"/>
		<stop  offset="0.7829" style="stop-color:#616162"/>
		<stop  offset="1" style="stop-color:#4F4E4E"/>
	</radialGradient>
	<path fill="url(#SVGID_1_)" d="M99.759,195.796C-10.044,110.864-9.822,0.621,20.075,4.999C81.25,13.957,100,13.063,100,13.063
		s18.361,0.894,79.84-8.063C209.885,0.621,210.109,110.864,99.759,195.796z"/>
</g>
<g id="Layer_1_copy">
	<path fill="#921917" d="M3.469,44.559c3.579,38.914,29.696,99.727,96.29,151.237c29.449-22.665,51.017-47.132,66.251-70.743
		L3.469,44.559z"/>
</g>
<g id="Layer_3">
	<g>
		<path fill="#FFFFFF" d="M126.667,87c7.8-2.536,15.834-4.416,24.043-5.628c8.222-1.184,16.616-1.816,25.42-0.73
			c4.396,0.596,8.943,1.641,13.51,4.078c2.267,1.229,4.529,2.886,6.439,5.122c1.924,2.208,3.408,4.993,4.201,7.86
			c0.399,1.432,0.647,2.876,0.771,4.289l0.038,0.527l0.017,0.264l0.009,0.132l0.006,0.218c0.012,0.285,0.034,0.426,0.032,0.876
			c0.011,0.807-0.015,1.415-0.064,2.139c-0.202,2.79-0.891,5.667-2.099,8.35c-1.199,2.686-2.905,5.146-4.892,7.212
			c-1.982,2.075-4.244,3.751-6.574,5.091c-4.68,2.681-9.595,4.112-14.386,4.907c-4.809,0.76-9.534,0.834-14.142,0.538
			c-4.609-0.297-9.108-1.004-13.478-2.038c-4.373-1.021-8.634-2.313-12.783-3.818c-8.284-3.06-16.111-6.969-23.528-11.412
			c-3.693-2.25-7.288-4.629-10.784-7.121c-1.737-1.235-3.5-2.542-5.149-3.794l-4.786-3.65c-6.358-4.877-12.822-9.584-19.271-14.251
			c-6.441-4.68-13.014-9.117-19.578-13.422c-3.293-2.134-6.611-4.193-9.954-6.131c-3.343-1.933-6.678-3.819-10.04-5.462
			c-3.348-1.658-6.735-3.074-9.967-4.156c-3.201-1.074-6.398-1.666-8.496-1.504c-1.049,0.082-1.71,0.259-2.243,0.498
			c-0.34,0.104-0.733,0.366-1.121,1.056c-0.791,1.331-0.971,4.13-0.228,7.154c0.713,3.053,2.229,6.285,4.053,9.452
			c1.835,3.179,4.085,6.264,6.503,9.28c4.856,6.04,10.504,11.698,16.398,17.165C40.471,105.526,46.673,110.795,53,116
			c-7.505-3.289-14.847-6.999-21.925-11.276c-7.088-4.265-13.942-9.052-20.32-14.743c-3.182-2.855-6.21-5.968-9.015-9.453
			c-2.794-3.493-5.315-7.404-7.155-12.07c-0.897-2.339-1.625-4.886-1.895-7.697c-0.262-2.798-0.09-5.891,0.963-9.032
			c0.525-1.564,1.276-3.128,2.286-4.597c0.504-0.734,1.074-1.444,1.708-2.116c0.325-0.342,0.635-0.646,1.019-0.99l0.477-0.413
			l0.559-0.446c1.375-1.061,2.894-1.919,4.425-2.559c1.537-0.634,3.08-1.056,4.566-1.33c2.981-0.54,5.736-0.534,8.301-0.328
			c2.568,0.214,4.966,0.644,7.268,1.173c4.601,1.061,8.799,2.602,12.864,4.239c8.113,3.298,15.577,7.303,22.84,11.507
			c14.484,8.455,27.994,17.956,41.155,27.812c1.635,1.22,3.313,2.48,4.903,3.723c1.57,1.218,3.057,2.344,4.614,3.478
			c3.089,2.252,6.246,4.389,9.463,6.396c6.402,4.063,13.058,7.635,19.9,10.479c6.81,2.908,13.874,4.985,20.813,6.018
			c3.467,0.498,6.906,0.659,10.158,0.427c3.249-0.203,6.322-0.852,8.834-1.967c2.511-1.136,4.423-2.589,5.617-4.485
			c0.604-0.952,1.051-2.034,1.313-3.274l0.166-0.895c0.026-0.057,0.044-0.424,0.065-0.646c0.003-0.059,0.003,0.135,0.005,0.027
			l0.005-0.059l0.01-0.117l0.02-0.232c0.039-0.614,0.027-1.19-0.029-1.736c-0.126-1.086-0.43-2.052-1.028-3.026
			c-0.592-0.968-1.502-1.94-2.675-2.855c-2.361-1.839-5.693-3.242-9.219-4.31c-3.545-1.089-7.355-1.792-11.23-2.355
			c-3.883-0.559-7.85-0.881-11.849-1.128c-4-0.216-8.037-0.334-12.091-0.345C134.827,86.738,130.764,86.86,126.667,87z"/>
	</g>
</g>
</svg>
